<!--?xml version="1.0" encoding="UTF-8"?-->
<svg xmlns="http://www.w3.org/2000/svg" viewBox="0 0 512 512" width="512" height="512" role="img" aria-label="LinkedIn">
  <path fill="#0A66C2" d="M474.3 0H37.7C16.9 0 0 16.9 0 37.7v436.6C0 495.1 16.9 512 37.7 512h436.6c20.8 0 37.7-16.9 37.7-37.7V37.7C512 16.9 495.1 0 474.3 0z"></path>
  <path fill="#FFFFFF" d="M151.4 197.6h-77v248.8h77V197.6zm-38.4-87.9c-24.6 0-44.6 20-44.6 44.6s20 44.6 44.6 44.6 44.6-20 44.6-44.6-20-44.6-44.6-44.6zM415.1 290.6c0-56.1-12-99-77.1-99-31.3 0-52.3 17.2-60.9 33.6h-.9v-27.2h-73.6v248.8h76.6V306.7c0-25.3 4.8-49.8 36.2-49.8 31 0 31.4 29 31.4 51.4v138.1h77.3V290.6z"></path>
</svg>
