<!--?xml version="1.0" encoding="UTF-8"?-->
<svg xmlns="http://www.w3.org/2000/svg" viewBox="0 0 512 512" width="512" height="512" role="img" aria-label="Twitter">
  <path fill="#1DA1F2" d="M459.4 151.7c.3 4.5.3 9 .3 13.6 0 139.2-105.9 299.4-299.4 299.4-59.6 0-115-17.2-161.6-47 8.4 1 16.8 1.4 25.5 1.4 49.4 0 94.8-16.8 130.8-45-46.1-1-84.8-31.2-98.1-72.8 6.5 1 13.1 1.6 20 1.6 9.6 0 18.9-1.3 27.8-3.7-48.3-9.7-84.6-52.4-84.6-103.6v-1.3c14.3 7.9 30.8 12.7 48.3 13.3-28.6-19.1-47.3-51.7-47.3-88.6 0-19.5 5.2-37.8 14.3-53.4 52.3 64.3 130.6 106.4 218.8 111-1.6-7.8-2.6-15.9-2.6-24 0-58.6 47.6-106.2 106.2-106.2 30.6 0 58.3 12.9 77.7 33.6 24.2-4.7 46.8-13.6 67.2-25.7-7.9 24.8-24.8 45.6-46.9 58.8 21.5-2.3 42.1-8.3 61.2-16.8-14.3 21.3-32.3 40.1-53.1 55.2z"></path>
</svg>
